<?xml version="1.0" standalone="no"?>
<!DOCTYPE svg PUBLIC "-//W3C//DTD SVG 20010904//EN"
 "http://www.w3.org/TR/2001/REC-SVG-20010904/DTD/svg10.dtd">
<svg version="1.0" xmlns="http://www.w3.org/2000/svg"
 width="2168.283298pt" height="552.190530pt" viewBox="0 0 2168.283298 552.190530"
 preserveAspectRatio="xMidYMid meet">
<metadata>
Created by Potrace Professional 1.1m
</metadata>
<g transform="translate(-92.879541,608.190530) rotate(-360.00) scale(0.095238,-0.095238)"
fill="#126778" stroke="none">
<path d="M2315 6373 c-273 -31 -510 -115 -729 -260 l-90 -59 -94 -95 c-230
-230 -371 -541 -415 -908 l-12 -100 4 -1533 4 -1533 28 -127 c36 -162 80 -287
147 -418 199 -389 572 -651 1044 -731 l121 -21 157 0 c258 0 395 30 743 159
259 97 382 131 533 147 l108 12 116 -13 c153 -16 275 -48 506 -136 225 -85
327 -118 449 -144 l89 -20 231 1 231 0 103 23 c629 140 1020 548 1144 1192
l22 118 4 1470 4 1470 -11 121 c-38 400 -167 705 -400 949 -242 253 -565 400
-963 437 l-123 12 -105 -7 c-217 -15 -346 -47 -668 -168 -221 -84 -314 -111
-443 -132 l-81 -13 -155 6 -155 5 -99 27 c-55 14 -166 50 -247 80 -275 103
-410 146 -524 168 l-114 22 -138 4 c-76 3 -176 0 -222 -5z m421 -100 c136 -23
228 -50 441 -131 306 -115 429 -148 614 -162 l89 -7 105 11 c152 17 295 55
531 143 245 92 358 126 487 147 l95 15 143 0 c278 1 484 -47 713 -163 430
-220 670 -618 713 -1180 l11 -142 0 -1318 0 -1318 -11 -146 c-29 -400 -148
-695 -379 -936 -188 -195 -421 -319 -728 -385 l-105 -22 -205 -1 -205 0 -107
23 c-60 13 -175 48 -258 77 -493 177 -566 196 -758 206 l-116 6 -92 -13 c-143
-19 -267 -54 -511 -145 -244 -92 -382 -131 -531 -150 l-94 -13 -152 7 -153 6
-101 20 c-495 101 -857 404 -1015 853 -39 110 -70 255 -85 390 l-11 102 0
1441 0 1442 10 94 c78 681 488 1130 1134 1244 l110 20 164 1 164 1 93 -17z"/>
<path d="M2552 5848 c-179 -22 -361 -86 -513 -180 l-90 -56 -95 -94 c-176
-174 -272 -356 -333 -636 l-25 -110 0 -1275 0 -1276 19 -95 c41 -200 130 -408
238 -552 28 -37 91 -106 139 -152 l88 -85 89 -54 c96 -59 210 -107 335 -141
l79 -21 174 -5 173 -5 92 17 c139 26 256 71 466 180 105 54 227 111 270 125
l78 27 94 0 93 0 62 -17 c35 -8 169 -67 299 -130 247 -120 352 -158 501 -184
l90 -16 144 0 144 0 89 15 c182 32 373 115 519 225 225 169 364 397 441 726
l19 79 3 1265 4 1265 -17 111 c-44 288 -187 567 -385 750 -191 177 -412 273
-693 302 l-117 11 -118 -12 c-193 -20 -351 -74 -580 -200 -266 -144 -388 -173
-569 -131 l-73 16 -212 105 c-231 114 -370 167 -505 193 -109 20 -314 28 -417
15z m393 -99 c139 -25 243 -63 468 -174 112 -56 237 -112 278 -126 l73 -26
137 1 136 0 79 30 c43 16 160 72 259 123 204 106 308 147 433 171 l87 17 129
0 129 0 84 -16 c241 -46 438 -155 608 -335 138 -147 230 -327 280 -552 l23
-100 0 -1281 0 -1281 -25 -110 c-31 -144 -81 -274 -144 -380 l-52 -86 -94 -97
c-175 -177 -359 -272 -614 -315 l-109 -18 -148 6 -148 6 -84 21 c-133 33 -228
71 -425 170 -101 50 -224 104 -273 120 l-89 29 -100 1 -100 1 -68 -18 -68 -18
-242 -120 c-133 -67 -270 -130 -306 -142 -272 -89 -601 -64 -858 64 -332 164
-545 466 -607 860 l-14 89 0 1234 0 1233 18 96 c76 400 280 679 610 834 162
76 286 102 497 103 l148 2 92 -16z"/>
<path d="M2789 5344 c-456 -72 -747 -371 -794 -818 l-10 -100 0 -940 0 -940
10 -115 c15 -154 44 -264 100 -378 82 -169 189 -274 364 -358 l80 -37 103 -22
104 -21 147 5 147 6 63 17 c98 27 243 103 350 185 141 106 200 142 269 162
l61 18 47 -6 c72 -10 127 -39 273 -144 197 -142 331 -204 500 -231 l79 -13
140 5 139 6 90 23 c100 26 235 86 311 138 193 132 322 344 360 588 l12 78 -3
1092 -4 1092 -24 89 c-13 49 -47 139 -76 199 l-54 109 -86 86 -86 87 -110 53
-109 52 -84 20 -84 19 -152 -1 -153 0 -82 -24 c-115 -32 -215 -84 -332 -169
-221 -161 -274 -188 -370 -189 l-50 0 -55 21 c-31 11 -115 63 -187 115 -154
111 -308 191 -425 221 l-84 22 -137 4 c-75 2 -164 -1 -198 -6z m402 -105 c110
-28 247 -99 384 -201 64 -46 146 -100 184 -118 l68 -32 100 0 100 0 68 32 c38
18 127 77 200 130 200 148 321 200 504 216 l79 7 99 -12 c120 -14 192 -34 283
-77 l69 -33 90 -90 89 -89 39 -80 c22 -44 52 -127 68 -184 l29 -104 0 -1107 0
-1108 -20 -74 c-10 -40 -39 -116 -64 -168 l-46 -95 -70 -76 -70 -76 -79 -52
c-95 -62 -222 -110 -353 -133 l-96 -16 -121 5 c-66 4 -151 14 -189 24 -103 26
-243 99 -383 200 -70 50 -157 105 -194 123 l-69 33 -89 0 -89 -1 -61 -24 c-33
-13 -101 -54 -152 -91 -221 -163 -298 -208 -426 -243 l-65 -18 -147 0 -147 -1
-82 19 c-44 11 -119 38 -165 61 l-83 42 -58 53 c-117 107 -199 270 -232 460
l-16 92 4 1086 3 1085 24 79 c13 43 43 116 67 162 l44 85 90 90 90 91 110 53
c169 82 304 109 492 100 60 -3 145 -14 189 -25z"/>
<path d="M2877 4924 c-32 -5 -96 -29 -143 -52 l-86 -42 -63 -63 c-68 -70 -118
-153 -142 -241 l-16 -58 -3 -987 -4 -987 18 -66 c53 -190 170 -320 335 -371
l64 -20 105 0 105 0 65 17 c35 9 93 31 127 49 l63 33 79 80 c43 44 121 125
173 181 l95 100 61 18 62 18 45 -7 c62 -10 130 -47 233 -130 48 -39 138 -110
200 -158 l113 -87 84 -41 c46 -22 113 -48 148 -57 l65 -16 94 0 95 0 67 21
c187 58 332 208 380 395 l17 65 0 970 0 971 -20 80 c-27 104 -62 170 -128 242
l-54 60 -75 36 -75 36 -78 12 -77 12 -69 -7 c-199 -20 -311 -85 -476 -278
-149 -174 -203 -211 -310 -210 l-61 0 -46 21 c-58 26 -115 67 -265 190 -186
153 -315 229 -442 260 -72 17 -193 22 -260 11z m269 -105 c123 -38 226 -104
426 -273 42 -36 110 -88 152 -115 l74 -49 66 -18 66 -19 56 7 c31 4 85 21 119
39 l64 31 81 91 c45 50 117 126 160 170 l79 79 59 28 c79 39 134 50 241 50
l90 1 56 -17 c145 -43 243 -158 278 -326 l16 -72 0 -937 0 -936 -12 -56 c-46
-219 -241 -376 -465 -376 -180 1 -304 64 -607 311 l-131 106 -72 36 -72 35
-85 0 -84 0 -50 -23 c-76 -35 -126 -78 -230 -202 -140 -164 -209 -213 -345
-248 l-68 -18 -95 5 -95 5 -65 29 -64 30 -52 54 c-63 66 -91 120 -112 211
l-16 68 3 985 3 984 20 47 c11 26 37 73 58 105 l39 58 65 49 65 50 65 21 66
20 91 1 90 1 72 -22z"/>
<path d="M2948 4553 c-59 -21 -89 -44 -121 -93 l-29 -43 -3 -903 -2 -904 26
-54 27 -54 43 -31 44 -30 76 0 76 0 45 32 45 31 24 47 25 46 0 502 0 503 14
35 14 34 33 14 32 13 26 -9 27 -9 612 -610 612 -610 40 -13 41 -13 56 4 56 5
42 29 42 29 27 54 27 53 -1 893 0 893 -19 43 c-11 24 -38 57 -59 75 l-40 33
-49 12 -49 12 -48 -12 c-61 -16 -121 -65 -146 -120 l-20 -43 0 -516 0 -517
-24 -27 c-23 -26 -40 -31 -91 -28 l-26 2 -620 618 -620 618 -49 12 c-61 14
-67 14 -116 -3z"/>
<path d="M8595 4552 c-60 -22 -92 -48 -121 -101 l-27 -46 0 -898 c0 -494 4
-911 8 -926 11 -40 67 -100 114 -125 l40 -20 51 0 51 0 46 24 c25 13 60 41 78
64 l32 40 6 527 5 526 13 24 c8 13 25 31 39 40 l26 17 34 -7 35 -8 619 -617
620 -618 40 -7 c22 -4 61 -5 88 -2 l47 5 44 30 43 31 24 47 24 47 -3 915 -3
915 -32 40 c-43 54 -90 85 -142 93 l-43 8 -49 -14 -48 -14 -44 -44 -44 -44
-12 -40 -11 -41 0 -504 0 -504 -17 -24 c-9 -14 -28 -29 -42 -34 l-26 -10 -34
14 -33 14 -602 601 c-331 330 -616 607 -633 616 -16 8 -50 18 -75 21 l-45 5
-41 -16z"/>
<path d="M11893 4556 c-460 -49 -847 -413 -927 -874 l-17 -96 6 -131 5 -132
22 -88 c103 -411 457 -727 882 -789 l89 -13 121 6 122 6 94 26 c122 34 200 69
305 137 274 180 445 464 477 791 l9 97 -9 105 c-48 502 -441 899 -948 955
-110 13 -112 13 -231 0z m311 -441 c102 -34 174 -80 256 -163 l75 -75 42 -88
c52 -110 68 -179 68 -292 l0 -90 -18 -68 c-23 -92 -56 -160 -115 -239 l-48
-66 -66 -48 c-78 -58 -169 -102 -251 -120 l-59 -13 -109 6 -109 5 -61 22
c-180 64 -332 219 -395 404 l-23 65 -6 101 -6 102 13 66 c17 87 46 156 102
241 90 138 223 227 397 268 l63 14 92 -5 92 -5 66 -22z"/>
<path d="M13598 4554 c-21 -7 -57 -32 -81 -56 l-44 -44 -11 -40 -11 -41 0
-882 0 -882 19 -42 c25 -53 79 -106 125 -121 l36 -12 57 4 57 5 44 31 43 30
25 47 24 46 0 503 0 504 16 34 17 35 29 12 29 12 31 -7 30 -7 231 -235 231
-234 48 -21 c61 -28 98 -27 162 3 l53 25 220 223 c122 122 234 229 250 238
l30 15 32 -7 31 -7 20 -33 20 -33 0 -510 1 -510 24 -46 24 -47 44 -31 44 -30
62 -5 63 -4 47 22 c51 25 91 70 110 126 l12 36 0 888 0 888 -20 43 c-23 51
-82 102 -137 119 -49 14 -68 14 -121 0 l-42 -12 -394 -391 -394 -392 -37 -7
-36 -7 -32 12 -31 12 -389 387 -388 387 -42 11 c-51 14 -83 13 -131 -2z"/>
<path d="M16430 4558 c-54 -18 -103 -55 -129 -100 l-26 -45 0 -909 0 -909 11
-30 c15 -39 59 -85 107 -109 l39 -20 53 0 53 0 39 20 c48 24 92 70 107 109
l11 30 0 909 0 909 -27 46 -26 45 -45 26 c-50 30 -123 42 -167 28z"/>
<path d="M17328 4553 c-53 -19 -108 -68 -130 -115 l-20 -44 0 -888 0 -888 12
-36 c19 -56 59 -101 110 -126 l47 -22 63 4 62 5 44 30 44 31 24 47 25 46 0
510 0 510 20 33 20 33 32 7 31 7 25 -12 c13 -7 298 -285 633 -619 l609 -607
40 -12 41 -13 56 4 56 5 42 29 42 29 27 54 27 53 -1 893 0 893 -19 43 c-32 70
-124 131 -197 130 -73 0 -157 -55 -194 -127 l-20 -40 0 -518 0 -519 -21 -27
c-25 -32 -63 -43 -102 -28 l-29 11 -614 613 -615 613 -42 11 c-52 14 -84 13
-128 -3z"/>
<path d="M19954 4547 c-18 -4 -50 -18 -71 -31 l-38 -24 -29 -49 -29 -49 -3
-861 -2 -860 11 -56 12 -56 33 -38 c18 -21 52 -46 75 -57 l42 -19 702 0 701 0
34 16 c18 10 49 32 67 50 l34 32 17 52 18 52 -12 54 -13 54 -31 38 c-17 21
-51 48 -76 60 l-46 22 -524 0 -524 0 -34 21 -33 20 -12 45 -12 44 3 97 4 97
22 30 c12 16 33 35 47 42 l25 13 419 0 418 1 36 17 c20 9 52 35 72 58 l35 41
11 46 c14 56 7 102 -26 160 l-26 44 -49 30 -50 29 -437 5 -437 5 -22 20 c-31
28 -43 81 -43 185 l0 89 18 37 18 37 37 18 37 18 516 0 517 1 29 11 c37 13 95
68 116 108 l16 31 0 61 0 61 -28 47 -28 47 -49 30 -50 29 -687 1 c-379 1 -703
-1 -721 -6z"/>
<path d="M21915 4545 l-46 -11 -44 -44 -45 -45 -13 -55 -13 -54 12 -48 c14
-59 46 -103 95 -133 l37 -23 273 -5 274 -6 29 -19 c16 -10 36 -35 44 -55 l15
-35 0 -708 0 -707 24 -46 25 -47 45 -31 44 -32 76 0 77 0 43 30 43 30 27 54
27 53 0 709 0 710 13 25 c7 14 26 35 42 47 l30 22 275 6 275 5 22 12 c12 7 39
32 59 55 l38 42 12 44 12 44 -7 38 c-3 21 -18 58 -32 82 l-26 44 -50 30 -49
29 -809 1 -808 2 -46 -10z"/>
</g>
</svg>
